<svg xmlns="http://www.w3.org/2000/svg" viewBox="0 0 256 256">
  <defs>
    <radialGradient id="nn" cx=".5" cy=".42" r=".62">
      <stop offset="0" stop-color="#e8b25c"/><stop offset=".55" stop-color="#d99a3e"/><stop offset="1" stop-color="#b9772a"/>
    </radialGradient>
    <radialGradient id="nc" cx=".5" cy=".5" r=".5">
      <stop offset="0" stop-color="#c8862f"/><stop offset="1" stop-color="#a96a22"/>
    </radialGradient>
  </defs>
  <ellipse cx="128" cy="218" rx="84" ry="12" fill="#0b1826" opacity=".08"/>
  <ellipse cx="128" cy="132" rx="92" ry="78" fill="url(#nn)"/>
  <ellipse cx="128" cy="128" rx="92" ry="76" fill="none" stroke="#9c5f1e" stroke-width="3" opacity=".35"/>
  <ellipse cx="128" cy="128" rx="44" ry="36" fill="url(#nc)"/>
  <g fill="#8a5418">
    <circle cx="128" cy="128" r="3.4"/>
    <circle cx="112" cy="120" r="2.6"/><circle cx="144" cy="120" r="2.6"/>
    <circle cx="112" cy="138" r="2.6"/><circle cx="144" cy="138" r="2.6"/>
    <circle cx="128" cy="108" r="2.6"/><circle cx="128" cy="148" r="2.6"/>
    <circle cx="98" cy="128" r="2.6"/><circle cx="158" cy="128" r="2.6"/>
    <circle cx="118" cy="129" r="2.2"/><circle cx="138" cy="129" r="2.2"/>
    <circle cx="120" cy="113" r="2.2"/><circle cx="136" cy="113" r="2.2"/>
    <circle cx="120" cy="144" r="2.2"/><circle cx="136" cy="144" r="2.2"/>
  </g>
  <g stroke="#8a5418" stroke-width="2.4" opacity=".75" fill="none" stroke-linecap="round">
    <path d="M128 84v-8"/><path d="M168 96l6-6"/><path d="M88 96l-6-6"/>
    <path d="M184 128h8"/><path d="M64 128h8"/>
    <path d="M168 162l6 6"/><path d="M88 162l-6 6"/><path d="M128 174v8"/>
  </g>
  <g fill="#f7e3b7" opacity=".9">
    <circle cx="104" cy="100" r="1.8"/><circle cx="152" cy="100" r="1.8"/>
    <circle cx="92" cy="148" r="1.8"/><circle cx="166" cy="146" r="1.8"/>
    <circle cx="148" cy="166" r="1.8"/><circle cx="108" cy="164" r="1.8"/>
  </g>
</svg>
