<svg xmlns="http://www.w3.org/2000/svg" viewBox="0 0 256 256">
  <defs>
    <linearGradient id="cb" x1="0" y1="0" x2="0" y2="1">
      <stop offset="0" stop-color="#f6c63c"/><stop offset="1" stop-color="#eba81e"/>
    </linearGradient>
  </defs>
  <ellipse cx="128" cy="224" rx="62" ry="9" fill="#0b1826" opacity=".08"/>
  <path d="M84 56c14 8 74 8 88 0l6 14c-4 4-4 8 0 12-4 4-4 8 0 12-4 4-4 8 0 12-4 4-4 8 0 12-4 4-4 8 0 12-4 4-4 8 0 12-4 4-4 8 0 12-4 4-4 8 0 12l-6 14c-14-8-74-8-88 0l-6-14c4-4 4-8 0-12 4-4 4-8 0-12 4-4 4-8 0-12 4-4 4-8 0-12 4-4 4-8 0-12 4-4 4-8 0-12 4-4 4-8 0-12 4-4 4-8 0-12z" fill="url(#cb)"/>
  <path d="M84 56c14 8 74 8 88 0l3 7c-16 8-78 8-94 0z" fill="#c8880f"/>
  <path d="M87 193c16-8 78-8 94 0l-3 7c-14-8-74-8-88 0z" fill="#c8880f"/>
  <circle cx="128" cy="118" r="32" fill="#d6452a"/>
  <path d="M112 116c4-10 12-14 20-12s12 10 10 18-12 12-18 10c4-2 8-6 8-10 0-6-6-10-12-8-4 2-6 6-8 2z" fill="#f8d8a8"/>
  <rect x="100" y="158" width="56" height="10" rx="5" fill="#ffffff" opacity=".85"/>
  <rect x="110" y="174" width="36" height="7" rx="3.5" fill="#ffffff" opacity=".55"/>
</svg>
