<svg xmlns="http://www.w3.org/2000/svg" viewBox="0 0 256 256">
  <defs>
    <linearGradient id="cw" x1="0" y1="0" x2="0" y2="1">
      <stop offset="0" stop-color="#6d4030"/><stop offset="1" stop-color="#53291c"/>
    </linearGradient>
  </defs>
  <ellipse cx="128" cy="212" rx="80" ry="11" fill="#0b1826" opacity=".08"/>
  <g transform="rotate(-6 128 128)">
    <rect x="44" y="84" width="168" height="88" rx="8" fill="url(#cw)"/>
    <rect x="44" y="84" width="40" height="88" rx="8" fill="#caa258"/>
    <rect x="74" y="84" width="12" height="88" fill="#b88c41"/>
    <g transform="translate(86 84)">
      <rect x="14" y="14" width="28" height="26" rx="4" fill="#7c4a37"/>
      <rect x="48" y="14" width="28" height="26" rx="4" fill="#7c4a37"/>
      <rect x="82" y="14" width="28" height="26" rx="4" fill="#7c4a37"/>
      <rect x="14" y="48" width="28" height="26" rx="4" fill="#7c4a37"/>
      <rect x="48" y="48" width="28" height="26" rx="4" fill="#7c4a37"/>
      <rect x="82" y="48" width="28" height="26" rx="4" fill="#7c4a37"/>
      <path d="M14 18a4 4 0 014-4h20" stroke="#9a6a52" stroke-width="3" fill="none" stroke-linecap="round"/>
      <path d="M48 18a4 4 0 014-4h20" stroke="#9a6a52" stroke-width="3" fill="none" stroke-linecap="round"/>
      <path d="M82 18a4 4 0 014-4h20" stroke="#9a6a52" stroke-width="3" fill="none" stroke-linecap="round"/>
      <path d="M14 52a4 4 0 014-4h20" stroke="#9a6a52" stroke-width="3" fill="none" stroke-linecap="round"/>
      <path d="M48 52a4 4 0 014-4h20" stroke="#9a6a52" stroke-width="3" fill="none" stroke-linecap="round"/>
      <path d="M82 52a4 4 0 014-4h20" stroke="#9a6a52" stroke-width="3" fill="none" stroke-linecap="round"/>
    </g>
    <rect x="52" y="100" width="24" height="10" rx="5" fill="#7c4a37" opacity=".7"/>
    <rect x="52" y="118" width="24" height="8" rx="4" fill="#7c4a37" opacity=".5"/>
  </g>
</svg>
