<svg xmlns="http://www.w3.org/2000/svg" viewBox="0 0 256 256">
  <defs>
    <linearGradient id="cs" x1="0" y1="0" x2="0" y2="1">
      <stop offset="0" stop-color="#b3402e"/><stop offset="1" stop-color="#8f2f20"/>
    </linearGradient>
  </defs>
  <ellipse cx="128" cy="226" rx="58" ry="9" fill="#0b1826" opacity=".08"/>
  <path d="M86 44l84-6 8 178c0 6-4 10-10 10H88c-6 0-10-4-10-10z" fill="url(#cs)"/>
  <path d="M86 44l84-6 2 26-84 6z" fill="#7a2718"/>
  <path d="M86 44l84-6" stroke="#5e1d11" stroke-width="3" stroke-dasharray="6 5"/>
  <rect x="92" y="92" width="72" height="50" rx="8" fill="#f5e7d3"/>
  <path d="M112 108c0-5 4-9 9-9h14c10 0 17 7 17 16s-7 16-17 16h-14c-5 0-9-4-9-9z" fill="#8f2f20"/>
  <path d="M152 112h6c5 0 8 3 8 7s-3 7-8 7h-6" fill="none" stroke="#8f2f20" stroke-width="4"/>
  <path d="M118 92c2-6 0-8 2-12m12 12c2-6 0-8 2-12m12 12c2-6 0-8 2-12" stroke="#caa27a" stroke-width="4" fill="none" stroke-linecap="round"/>
  <rect x="96" y="156" width="64" height="10" rx="5" fill="#e7b9a4" opacity=".85"/>
  <rect x="96" y="174" width="44" height="8" rx="4" fill="#e7b9a4" opacity=".55"/>
  <circle cx="160" cy="196" r="14" fill="#f3c64e"/>
  <path d="M154 196l5 5 8-10" stroke="#8f2f20" stroke-width="3.5" fill="none" stroke-linecap="round" stroke-linejoin="round"/>
</svg>
