<svg xmlns="http://www.w3.org/2000/svg" viewBox="0 0 256 256">
  <defs>
    <linearGradient id="mp" x1="0" y1="0" x2="0" y2="1">
      <stop offset="0" stop-color="#fdfefe"/><stop offset="1" stop-color="#e9f1f7"/>
    </linearGradient>
  </defs>
  <ellipse cx="128" cy="222" rx="64" ry="10" fill="#0b1826" opacity=".08"/>
  <path d="M84 70c-6 24-12 96-6 124 2 12 12 18 26 18h48c14 0 24-6 26-18 6-28 0-100-6-124z" fill="url(#mp)" stroke="#cfdde8" stroke-width="2"/>
  <path d="M84 70c4-14 8-22 14-26h60c6 4 10 12 14 26z" fill="#2f7fc1"/>
  <path d="M98 44h60l4 8H94z" fill="#226199"/>
  <path d="M78 134c20 10 80 10 100 0v36c-20 10-80 10-100 0z" fill="#2f7fc1"/>
  <ellipse cx="128" cy="152" rx="26" ry="15" fill="#fdfefe"/>
  <path d="M114 152c0-8 6-12 14-12s14 4 14 12-6 12-14 12-14-4-14-12z" fill="none"/>
  <path d="M118 148c2 6 18 6 20 0" stroke="#2f7fc1" stroke-width="3" fill="none" stroke-linecap="round"/>
  <circle cx="121" cy="146" r="2.2" fill="#2f7fc1"/><circle cx="135" cy="146" r="2.2" fill="#2f7fc1"/>
  <rect x="104" y="188" width="48" height="8" rx="4" fill="#9fc4de" opacity=".8"/>
  <path d="M96 84c-2 14-4 34-4 52" stroke="#ffffff" stroke-width="6" stroke-linecap="round" opacity=".8"/>
</svg>
