<svg xmlns="http://www.w3.org/2000/svg" viewBox="0 0 256 256">
  <defs>
    <linearGradient id="wb" x1="0" y1="0" x2="1" y2="0">
      <stop offset="0" stop-color="#cfe9fb"/><stop offset=".5" stop-color="#eaf6fe"/><stop offset="1" stop-color="#bcdff7"/>
    </linearGradient>
  </defs>
  <ellipse cx="128" cy="226" rx="62" ry="9" fill="#0b1826" opacity=".08"/>
  <rect x="116" y="22" width="24" height="14" rx="3" fill="#1d7fd1"/>
  <rect x="113" y="34" width="30" height="8" rx="3" fill="#9fcdee"/>
  <path d="M104 52c0-6 8-10 24-10s24 4 24 10l4 18c2 8-2 12-2 20v118c0 10-12 16-26 16s-26-6-26-16V90c0-8-4-12-2-20z" fill="url(#wb)" stroke="#a8cfe9" stroke-width="2"/>
  <path d="M104 96h104" stroke="none"/>
  <rect x="102" y="118" width="52" height="44" rx="6" fill="#1d7fd1"/>
  <rect x="108" y="126" width="40" height="7" rx="3.5" fill="#eaf6fe"/>
  <rect x="108" y="139" width="28" height="6" rx="3" fill="#9fcdee"/>
  <rect x="108" y="150" width="34" height="6" rx="3" fill="#9fcdee"/>
  <path d="M112 60v140" stroke="#ffffff" stroke-width="7" stroke-linecap="round" opacity=".55"/>
  <path d="M100 178c8 4 18 6 28 6" stroke="#a8cfe9" stroke-width="2" fill="none" opacity=".7"/>
  <path d="M100 196c8 4 18 6 28 6" stroke="#a8cfe9" stroke-width="2" fill="none" opacity=".7"/>
</svg>
